# Blender v2.78 (sub 0) OBJ File: 'racingOutpost.blend'
# www.blender.org
o starblast-1530198180899
v 0.000000 2.602897 -0.025000
v 0.000000 2.602897 0.000000
v 0.000000 2.602897 0.000000
v 0.025000 2.602897 0.000000
v 0.000000 2.602897 0.000000
v 0.000000 2.602897 0.025000
v -0.025000 2.602897 0.000000
v 0.000000 2.602897 0.000000
v 0.000000 -0.052707 -0.025000
v 0.025000 -0.052707 0.000000
v 0.000000 -0.052707 0.025000
v -0.025000 -0.052707 0.000000
v 0.000000 0.047293 0.000000
v -0.500000 0.047293 0.000000
v -0.500000 0.547293 0.000000
v 0.000000 0.547293 0.000000
v 0.500000 0.047293 0.000000
v 0.500000 0.547293 0.000000
v 0.000000 0.047293 0.000000
v 0.000000 0.547293 0.000000
v -0.500000 1.047293 0.000000
v 0.000000 1.047293 0.000000
v 0.500000 1.047293 0.000000
v 0.000000 1.047293 0.000000
v -0.500000 1.547293 0.000001
v 0.000000 1.547293 0.000001
v 0.500000 1.547293 0.000001
v 0.000000 1.547293 0.000001
v -0.500000 2.047294 0.000001
v 0.000000 2.047294 0.000001
v 0.500000 2.047294 0.000001
v 0.000000 2.047294 0.000001
v -0.500000 2.547294 0.000001
v 0.500000 2.547294 0.000001
vt 0.5625 0.7750
vt 0.5625 0.9750
vt 0.6125 0.9750
vt 0.6125 0.7750
vt 0.5125 0.7750
vt 0.5125 0.9750
vt 0.5625 0.9750
vt 0.5625 0.7750
vt 0.6125 0.7750
vt 0.6125 0.9750
vt 0.5125 0.7750
vt 0.5125 0.9750
vt 0.5625 0.7750
vt 0.5625 0.9750
vt 0.6125 0.9750
vt 0.6125 0.7750
vt 0.5125 0.7750
vt 0.5125 0.9750
vt 0.5625 0.9750
vt 0.5625 0.7750
vt 0.6125 0.7750
vt 0.6125 0.9750
vt 0.5125 0.7750
vt 0.5125 0.9750
vt 0.7625 0.6250
vt 0.7625 0.5250
vt 0.8625 0.5250
vt 0.8625 0.6250
vt 0.7625 0.7250
vt 0.8625 0.7250
vt 0.7625 0.6250
vt 0.8625 0.6250
vt 0.7625 0.6250
vt 0.7625 0.5250
vt 0.8625 0.5250
vt 0.8625 0.6250
vt 0.7625 0.7250
vt 0.8625 0.7250
vt 0.7625 0.6250
vt 0.8625 0.6250
vt 0.7625 0.6250
vt 0.7625 0.5250
vt 0.8625 0.5250
vt 0.8625 0.6250
vt 0.7625 0.7250
vt 0.8625 0.7250
vt 0.7625 0.6250
vt 0.8625 0.6250
vt 0.7625 0.6250
vt 0.7625 0.5250
vt 0.8625 0.5250
vt 0.8625 0.6250
vt 0.7625 0.7250
vt 0.8625 0.7250
vt 0.7625 0.6250
vt 0.8625 0.6250
vt 0.7625 0.6250
vt 0.7625 0.5250
vt 0.8625 0.5250
vt 0.8625 0.7250
vt 0.7625 0.7250
vt 0.7625 0.6250
vn 0.0000 0.0000 1.0000
vn 0.0000 1.0000 0.0000
vn 0.7071 0.0000 -0.7071
vn 0.7071 -0.0000 0.7071
vn -0.7071 -0.0000 0.7071
vn -0.7071 0.0000 -0.7071
vn 0.0000 0.0000 -1.0000
s off
f 1/1/1 2/2/1 3/3/1
f 4/4/2 1/1/2 3/3/2
f 4/5/1 3/6/1 5/7/1
f 6/8/2 4/5/2 5/7/2
f 6/8/2 5/7/2 7/9/2
f 5/7/1 8/10/1 7/9/1
f 7/11/2 8/12/2 1/1/2
f 8/12/1 2/2/1 1/1/1
f 9/13/3 1/14/3 4/15/3
f 10/16/3 9/13/3 4/15/3
f 10/17/4 4/18/4 6/19/4
f 11/20/4 10/17/4 6/19/4
f 11/20/5 6/19/5 12/21/5
f 6/19/5 7/22/5 12/21/5
f 12/23/6 7/24/6 9/13/6
f 7/24/6 1/14/6 9/13/6
f 13/25/7 14/26/7 15/27/7
f 13/25/7 15/27/7 16/28/7
f 17/29/7 13/25/7 16/28/7
f 17/29/7 16/28/7 18/30/7
f 19/31/1 15/27/1 14/26/1
f 19/31/1 20/32/1 15/27/1
f 17/29/1 20/32/1 19/31/1
f 17/29/1 18/30/1 20/32/1
f 16/33/7 15/34/7 21/35/7
f 16/33/7 21/35/7 22/36/7
f 18/37/7 16/33/7 22/36/7
f 18/37/7 22/36/7 23/38/7
f 20/39/1 21/35/1 15/34/1
f 20/39/1 24/40/1 21/35/1
f 18/37/1 24/40/1 20/39/1
f 18/37/1 23/38/1 24/40/1
f 22/41/7 21/42/7 25/43/7
f 22/41/7 25/43/7 26/44/7
f 23/45/7 22/41/7 26/44/7
f 23/45/7 26/44/7 27/46/7
f 24/47/1 25/43/1 21/42/1
f 24/47/1 28/48/1 25/43/1
f 23/45/1 28/48/1 24/47/1
f 23/45/1 27/46/1 28/48/1
f 26/49/7 25/50/7 29/51/7
f 26/49/7 29/51/7 30/52/7
f 27/53/7 26/49/7 30/52/7
f 27/53/7 30/52/7 31/54/7
f 28/55/1 29/51/1 25/50/1
f 28/55/1 32/56/1 29/51/1
f 27/53/1 32/56/1 28/55/1
f 27/53/1 31/54/1 32/56/1
f 30/57/7 29/58/7 33/59/7
f 30/57/7 33/59/7 34/60/7
f 31/61/7 30/57/7 34/60/7
f 32/62/1 33/59/1 29/58/1
f 32/62/1 34/60/1 33/59/1
f 31/61/1 34/60/1 32/62/1
