# Blender v2.78 (sub 0) OBJ File: ''
# www.blender.org
o Icosphere.001
v 0.000000 -1.000000 0.000000
v 0.723600 -0.447215 0.525720
v -0.276385 -0.447215 0.850640
v -0.894425 -0.447215 0.000000
v -0.276385 -0.447215 -0.850640
v 0.723600 -0.447215 -0.525720
v 0.877422 2.094975 0.151768
v -0.723600 0.447215 0.525720
v -0.723600 0.447215 -0.525720
v 0.276385 0.447215 -0.850640
v 0.894425 0.447215 0.000000
v -0.487951 1.489515 -0.170504
v 1.166911 0.567855 0.790193
v 0.227868 0.569194 1.263203
v 1.176874 1.348157 0.085497
v 0.689144 1.478886 1.007772
v -0.342546 1.350321 0.850836
v 0.446594 1.138798 -0.641429
v -0.243978 2.321260 -0.047526
v 0.505526 2.122553 0.721391
v -0.134262 1.951522 0.563435
v 0.467463 1.906898 -0.358231
v 0.185713 2.685818 0.132968
vt 0.4818 0.0000
vt 0.5211 0.1645
vt 0.3573 0.1114
vt 0.2832 0.8773
vt 0.3812 0.7676
vt 0.4044 0.9541
vt 0.3379 0.0237
vt 0.5024 0.6908
vt 0.5398 0.8388
vt 0.8832 0.7502
vt 0.7731 0.6219
vt 0.8832 0.5758
vt 0.2613 0.4112
vt 0.0935 0.3915
vt 0.2692 0.2548
vt 0.1696 0.7513
vt 0.0326 0.6898
vt 0.1157 0.5740
vt 0.7399 0.7348
vt 0.5939 0.7574
vt 0.6117 0.6120
vt 0.5398 0.9925
vt 0.7731 0.5504
vt 0.5686 0.4170
vt 0.7483 0.4207
vt 0.9150 0.2801
vt 0.8079 0.1427
vt 0.9592 0.1792
vt 0.2832 0.6106
vt 0.8535 0.4557
vt 0.3583 0.3270
vt 0.0000 0.4789
vt 1.0000 0.3581
vt 0.9216 0.4557
vt 0.5252 0.3679
vt 0.4092 0.4881
vt 0.7012 0.9437
vt 0.5533 0.8525
vt 0.7012 0.7574
vt 0.2832 0.3875
vt 0.8487 0.0000
vt 1.0000 0.0366
vt 0.5533 0.2614
vt 0.7340 0.2098
vt 0.2832 0.5902
vt 0.0237 0.8320
vt 0.1785 0.7513
vt 0.1785 1.0000
vt 0.0000 0.9127
vt 0.7731 0.1077
vt 0.5906 0.0000
vt 0.5533 0.6564
vt 0.4092 0.6908
vt 0.1332 0.1807
vt 0.2832 0.0000
vt 0.7731 0.1986
vt 0.5533 0.4537
vn 0.1876 -0.7947 0.5774
vn 0.6071 -0.7947 0.0000
vn -0.4911 -0.7947 0.3568
vn -0.4911 -0.7947 -0.3568
vn 0.1876 -0.7947 -0.5774
vn 0.9822 -0.1876 0.0000
vn -0.9521 0.2541 0.1702
vn -0.7946 -0.1876 0.5774
vn -0.7946 -0.1876 -0.5774
vn 0.3035 -0.1876 -0.9342
vn -0.3159 0.3451 -0.8838
vn 0.7191 -0.1613 -0.6759
vn -0.9822 0.1876 0.0000
vn -0.3035 0.1876 -0.9342
vn 0.7946 0.1876 -0.5774
vn 0.2720 -0.4747 0.8371
vn -0.6102 -0.0276 0.7918
vn -0.9754 0.2205 0.0000
vn -0.2875 0.3666 -0.8849
vn 0.9074 -0.3278 -0.2629
vn 0.4498 0.0226 0.8929
vn 0.8479 0.3494 0.3989
vn -0.1834 0.3508 0.9183
vn 0.6732 0.3287 -0.6624
vn -0.2005 0.3437 -0.9174
vn -0.1899 0.4762 0.8586
vn 0.6009 0.7148 0.3577
vn -0.3381 0.5812 0.7402
vn 0.5149 0.5827 -0.6288
vn 0.7649 0.4311 0.4785
vn -0.6780 0.5686 0.4658
vn -0.3636 0.2398 -0.9002
vn 0.8088 -0.0213 -0.5877
vn 0.6467 0.2483 -0.7212
vn -0.9280 0.3279 0.1768
vn 0.4130 -0.3943 0.8210
vn -0.6111 -0.0181 0.7914
vn 0.9237 -0.2632 -0.2784
vn -0.0753 0.5123 -0.8555
vn -0.3057 0.3129 0.8993
vn 0.8584 0.3078 0.4103
vn -0.7738 0.4707 0.4238
s off
f 1/1/1 2/2/1 3/3/1
f 2/4/2 1/5/2 6/6/2
f 1/1/3 3/3/3 4/7/3
f 1/5/4 4/8/4 5/9/4
f 1/5/5 5/9/5 6/6/5
f 2/10/6 6/11/6 11/12/6
f 12/13/7 17/14/7 19/15/7
f 4/16/8 3/17/8 8/18/8
f 5/19/9 4/20/9 9/21/9
f 6/6/10 5/9/10 10/22/10
f 10/23/11 12/24/11 18/25/11
f 11/26/12 18/27/12 15/28/12
f 4/16/13 8/18/13 9/29/13
f 5/19/14 9/21/14 10/23/14
f 6/11/15 10/30/15 11/12/15
f 2/2/16 14/31/16 3/3/16
f 8/18/17 14/32/17 17/14/17
f 9/29/18 8/18/18 12/13/18
f 10/23/19 9/21/19 12/24/19
f 11/26/20 13/33/20 2/34/20
f 14/31/21 13/35/21 16/36/21
f 13/37/22 15/38/22 16/39/22
f 14/31/23 16/36/23 17/40/23
f 15/28/24 22/41/24 7/42/24
f 19/43/25 22/44/25 18/25/25
f 16/36/26 21/45/26 17/40/26
f 20/46/27 7/47/27 23/48/27
f 21/49/28 20/46/28 23/48/28
f 7/50/29 22/44/29 23/51/29
f 16/36/30 7/52/30 20/53/30
f 19/15/31 21/54/31 23/55/31
f 18/25/32 12/24/32 19/43/32
f 18/27/33 11/26/33 10/56/33
f 22/41/34 15/28/34 18/27/34
f 12/13/35 8/18/35 17/14/35
f 2/2/36 13/35/36 14/31/36
f 8/18/37 3/17/37 14/32/37
f 11/26/38 15/28/38 13/33/38
f 19/43/39 23/51/39 22/44/39
f 16/36/40 20/53/40 21/45/40
f 16/36/41 15/57/41 7/52/41
f 19/15/42 17/14/42 21/54/42
